<?xml version="1.0" encoding="UTF-8" standalone="no" ?>
<!DOCTYPE svg PUBLIC "-//W3C//DTD SVG 1.1//EN" "http://www.w3.org/Graphics/SVG/1.1/DTD/svg11.dtd">
<svg xmlns="http://www.w3.org/2000/svg" xmlns:xlink="http://www.w3.org/1999/xlink" version="1.1" width="424" height="136" viewBox="0 0 424 136" xml:space="preserve">
<desc>Created with Fabric.js 5.3.0</desc>
<defs>
</defs>
<g transform="matrix(0.9989868765 0 0 0.9983116788 212.8142059126 68.8138683138)" id="I5OQE2Lr2K_FIjU4AgxaC"  >
<path style="stroke: none; stroke-width: 1; stroke-dasharray: none; stroke-linecap: butt; stroke-dashoffset: 0; stroke-linejoin: miter; stroke-miterlimit: 4; fill: rgb(204,204,204); fill-rule: nonzero; opacity: 1;"  transform=" translate(-213.265, 66.355)" d="M 3.16 -94.92 L 3.16 -94.92 L 3.16 -94.92 Q 1.05 -100.02 1.05 -106.96 L 1.05 -106.96 L 1.05 -106.96 Q 1.05 -113.91 1.58 -118.34 L 1.58 -118.34 L 1.58 -118.34 Q 2.11 -122.78 2.99 -126.39 L 2.99 -126.39 L 2.99 -126.39 Q 5.1 -134.47 8.17 -134.47 L 8.17 -134.47 L 85.61 -134.47 L 85.61 -134.47 Q 90.7 -134.47 92.46 -119.36 L 92.46 -119.36 L 92.46 -119.36 Q 92.9 -115.14 92.9 -110.65 L 92.9 -110.65 L 92.9 -110.65 Q 92.9 -100.11 90.62 -94.92 L 90.62 -94.92 L 90.62 -94.92 Q 83.06 -118.39 71.02 -124.98 L 71.02 -124.98 L 71.02 -124.98 Q 68.29 -126.56 65.65 -126.56 L 65.65 -126.56 L 65.65 -126.56 Q 63.02 -126.56 61.52 -125.2 L 61.52 -125.2 L 61.52 -125.2 Q 60.03 -123.84 59.06 -120.85 L 59.06 -120.85 L 59.06 -120.85 Q 57.48 -115.58 57.48 -108.19 L 57.48 -108.19 L 57.48 -75.23 L 57.57 -48.34 L 57.57 -22.85 L 57.57 -22.85 Q 57.57 -14.24 59.81 -10.15 L 59.81 -10.15 L 59.81 -10.15 Q 62.05 -6.06 64.38 -3.96 L 64.38 -3.96 L 64.38 -3.96 Q 66.71 -1.85 69.87 0 L 69.87 0 L 24.96 0 L 24.96 0 Q 31.29 -5.19 33.05 -8.53 L 33.05 -8.53 L 33.05 -8.53 Q 36.3 -14.59 36.3 -22.85 L 36.3 -22.85 L 36.3 -102.04 L 36.3 -102.04 Q 36.3 -115.84 35.24 -119.84 L 35.24 -119.84 L 35.24 -119.84 Q 34.19 -123.84 32.7 -125.2 L 32.7 -125.2 L 32.7 -125.2 Q 31.2 -126.56 28.56 -126.56 L 28.56 -126.56 L 28.56 -126.56 Q 25.93 -126.56 23.2 -125.02 L 23.2 -125.02 L 23.2 -125.02 Q 20.48 -123.49 17.89 -120.98 L 17.89 -120.98 L 17.89 -120.98 Q 15.29 -118.48 12.96 -115.18 L 12.96 -115.18 L 12.96 -115.18 Q 10.63 -111.88 8.7 -108.37 L 8.7 -108.37 L 8.7 -108.37 Q 4.92 -101.43 3.16 -94.92 Z M 142.82 -81.74 L 142.82 -81.74 Q 134.91 -81.74 131.44 -73.83 L 131.44 -73.83 L 131.44 -73.83 Q 127.97 -65.92 127.97 -47.2 L 127.97 -47.2 L 127.97 -47.2 Q 127.97 -7.03 142.82 -7.03 L 142.82 -7.03 L 142.82 -7.03 Q 150.73 -7.03 154.2 -17.75 L 154.2 -17.75 L 154.2 -17.75 Q 157.68 -28.48 157.68 -47.2 L 157.68 -47.2 L 157.68 -47.2 Q 157.68 -65.92 154.2 -73.83 L 154.2 -73.83 L 154.2 -73.83 Q 150.73 -81.74 142.82 -81.74 L 142.82 -81.74 Z M 105.82 -50.54 L 105.82 -50.54 Q 105.82 -90.53 142.82 -90.53 L 142.82 -90.53 L 142.82 -90.53 Q 179.82 -90.53 179.82 -50.54 L 179.82 -50.54 L 179.82 -50.54 Q 179.82 -26.28 169.63 -12.13 L 169.63 -12.13 L 169.63 -12.13 Q 159.7 1.76 142.82 1.76 L 142.82 1.76 L 142.82 1.76 Q 125.95 1.76 116.02 -12.13 L 116.02 -12.13 L 116.02 -12.13 Q 105.82 -26.28 105.82 -50.54 L 105.82 -50.54 Z M 312.28 0 L 311.04 -6.94 L 311.04 -6.94 Q 301.46 1.76 286.7 1.76 L 286.7 1.76 L 286.7 1.76 Q 273.16 1.76 265.34 -6.06 L 265.34 -6.06 L 265.34 -6.06 Q 257.26 -14.15 257.26 -28.87 L 257.26 -28.87 L 257.26 -28.87 Q 257.26 -43.59 261.56 -54.62 L 261.56 -54.62 L 261.56 -54.62 Q 265.87 -65.65 272.9 -73.13 L 272.9 -73.13 L 272.9 -73.13 Q 286.79 -87.89 307 -88.68 L 307 -88.68 L 307 -88.68 Q 306.3 -115.75 305.2 -119.75 L 305.2 -119.75 L 305.2 -119.75 Q 304.1 -123.75 303 -126.08 L 303 -126.08 L 303 -126.08 Q 301.9 -128.41 300.5 -130.34 L 300.5 -130.34 L 297.51 -134.47 L 329.59 -134.47 L 329.59 -134.47 Q 327.13 -125.6 326.73 -117.25 L 326.73 -117.25 L 326.73 -117.25 Q 326.34 -108.9 326.16 -102.57 L 326.16 -102.57 L 326.16 -102.57 Q 325.99 -96.24 325.9 -89.3 L 325.9 -89.3 L 325.9 -89.3 Q 325.63 -77.7 325.63 -66.23 L 325.63 -66.23 L 325.63 -66.23 Q 325.63 -54.76 325.68 -48.87 L 325.68 -48.87 L 325.68 -48.87 Q 325.72 -42.98 325.9 -37.71 L 325.9 -37.71 L 325.9 -37.71 Q 326.34 -17.93 327.39 -14.19 L 327.39 -14.19 L 327.39 -14.19 Q 328.45 -10.46 329.55 -8.22 L 329.55 -8.22 L 329.55 -8.22 Q 330.64 -5.98 332.05 -4.04 L 332.05 -4.04 L 335.04 0 L 312.28 0 Z M 307.13 -32.26 L 307.13 -32.26 L 307.13 -32.26 Q 307.53 -45.79 307.53 -57.61 L 307.53 -57.61 L 307.53 -57.61 Q 307.53 -69.43 307.27 -80.16 L 307.27 -80.16 L 307.27 -80.16 Q 294.52 -78.22 286.88 -65.13 L 286.88 -65.13 L 286.88 -65.13 Q 279.23 -52.12 279.23 -32.34 L 279.23 -32.34 L 279.23 -32.34 Q 279.23 -20.65 281.03 -16 L 281.03 -16 L 281.03 -16 Q 282.83 -11.34 285.34 -9.18 L 285.34 -9.18 L 285.34 -9.18 Q 287.84 -7.03 291.4 -7.03 L 291.4 -7.03 L 291.4 -7.03 Q 294.96 -7.03 297.64 -8.48 L 297.64 -8.48 L 297.64 -8.48 Q 300.32 -9.93 302.34 -12.74 L 302.34 -12.74 L 302.34 -12.74 Q 306.74 -18.72 307.13 -32.26 Z M 388.48 -81.74 L 388.48 -81.74 Q 380.57 -81.74 377.09 -73.83 L 377.09 -73.83 L 377.09 -73.83 Q 373.62 -65.92 373.62 -47.2 L 373.62 -47.2 L 373.62 -47.2 Q 373.62 -7.03 388.48 -7.03 L 388.48 -7.03 L 388.48 -7.03 Q 396.39 -7.03 399.86 -17.75 L 399.86 -17.75 L 399.86 -17.75 Q 403.33 -28.48 403.33 -47.2 L 403.33 -47.2 L 403.33 -47.2 Q 403.33 -65.92 399.86 -73.83 L 399.86 -73.83 L 399.86 -73.83 Q 396.39 -81.74 388.48 -81.74 L 388.48 -81.74 Z M 351.47 -50.54 L 351.47 -50.54 Q 351.47 -90.53 388.48 -90.53 L 388.48 -90.53 L 388.48 -90.53 Q 425.48 -90.53 425.48 -50.54 L 425.48 -50.54 L 425.48 -50.54 Q 425.48 -26.28 415.28 -12.13 L 415.28 -12.13 L 415.28 -12.13 Q 405.35 1.76 388.48 1.76 L 388.48 1.76 L 388.48 1.76 Q 371.6 1.76 361.67 -12.13 L 361.67 -12.13 L 361.67 -12.13 Q 351.47 -26.28 351.47 -50.54 L 351.47 -50.54 Z" stroke-linecap="round" />
</g>
</svg>